<svg version="1.1" xmlns="http://www.w3.org/2000/svg" viewBox="-15.510566162951536 -16.000000999999997 31.02113232590307 32.000001999999995" fill="none" stroke="black" stroke-width="0.6%" vector-effect="non-scaling-stroke">
    <path d="M 10.87426 7.90061 A 5 5 0 0 0 13.44132 0 A 5 5 0 0 0 10.87426 -7.90061 A 5.000000000000001 5.000000000000001 0 0 0 4.1536 -12.78346 A 5 5 0 0 0 -4.1536 -12.78346 A 5 5 0 0 0 -10.87426 -7.90061 A 5 5 0 0 0 -13.44132 0 A 5 5 0 0 0 -10.87426 7.90061 A 5.000000000000001 5.000000000000001 0 0 0 -4.1536 12.78346 A 5 5 0 0 0 4.1536 12.78346 A 5 5 0 0 0 10.87426 7.90061 Z" />
    <path d="M 1.72426 5.30671 A 5 5 0 0 0 -1.72426 5.30671 A 5 5 0 0 0 -4.51416 3.27973 A 5 5 0 0 0 -5.57981 0 A 5 5 0 0 0 -4.51416 -3.27973 A 5.000000000000001 5.000000000000001 0 0 0 -1.72426 -5.30671 A 5 5 0 0 0 1.72426 -5.30671 A 5.000000000000001 5.000000000000001 0 0 0 4.51416 -3.27973 A 5 5 0 0 0 5.57981 0 A 5 5 0 0 0 4.51416 3.27973 A 5 5 0 0 0 1.72426 5.30671 Z" />
</svg>