<svg version="1.1" xmlns="http://www.w3.org/2000/svg" viewBox="-17.258331249197706 -19.000001 34.516662498395405 38.000002" fill="none" stroke="black" stroke-width="0.6%" vector-effect="non-scaling-stroke">
    <path d="M 8.75833 10.83013 A 5 5 0 0 0 13.75833 2.16987 A 5 5 0 0 0 8.75833 10.83013 Z" />
    <path d="M 13.75833 -2.16987 A 5.000000000000001 5.000000000000001 0 0 0 8.75833 -10.83013 A 5.000000000000001 5.000000000000001 0 0 0 13.75833 -2.16987 Z" />
    <path d="M 5 -13 A 5 5 0 0 0 -5 -13 A 5 5 0 0 0 5 -13 Z" />
    <path d="M -8.75833 -10.83013 A 4.999999999999999 4.999999999999999 0 0 0 -13.75833 -2.16987 A 5 5 0 0 0 -8.75833 -10.83013 Z" />
    <path d="M -5 13 A 5 5 0 0 0 5 13 A 5 5 0 0 0 -5 13 Z" />
    <path d="M -13.75833 2.16987 A 5 5 0 0 0 -8.75833 10.83013 A 5 5 0 0 0 -13.75833 2.16987 Z" />
</svg>