<svg version="1.1" xmlns="http://www.w3.org/2000/svg" viewBox="-19.758331249197703 -16.8301280189222 37.016662498395405 35.8301290189222" fill="none" stroke="black" stroke-width="0.6%" vector-effect="non-scaling-stroke">
    <path d="M 6.25833 -6.5 A 5.000000000000001 5.000000000000001 0 0 0 13.75833 -2.16987 A 5.000000000000001 5.000000000000001 0 0 0 13.75833 -10.83013 A 5.000000000000001 5.000000000000001 0 0 0 6.25833 -15.16025 A 5.000000000000001 5.000000000000001 0 0 0 6.25833 -6.5 Z" />
    <path d="M 2.5 8.66987 A 5 5 0 0 0 -5 13 A 5 5 0 0 0 2.5 17.33013 A 5 5 0 0 0 10 13 A 5 5 0 0 0 2.5 8.66987 Z" />
    <path d="M -8.75833 -2.16987 A 5 5 0 0 0 -8.75833 -10.83013 A 4.999999999999999 4.999999999999999 0 0 0 -16.25833 -6.5 A 5.000000000000001 5.000000000000001 0 0 0 -16.25833 2.16025 A 5.000000000000001 5.000000000000001 0 0 0 -8.75833 -2.16987 Z" />
</svg>